<svg id="Layer_1" enable-background="new 0 0 512 512" height="512" viewBox="0 0 512 512" width="512" xmlns="http://www.w3.org/2000/svg"><g><path d="m245.002 21.996c-135.311 0-245.002 109.691-245.002 245.002 0 18.73 2.11 36.966 6.091 54.491l194.472 186.479c14.413 2.641 29.263 4.031 44.439 4.031 135.311 0 245.002-109.691 245.002-245.002s-109.691-245.001-245.002-245.001z" fill="#567ee2"/><path d="m209.451 181.636h216.941v41.66h-216.941z" fill="#543e5b" transform="matrix(.707 -.707 .707 .707 -50.048 284.105)"/><path d="m119.315 312.596c1.987 7.579 7.961 13.681 17.755 18.136 28.13 12.798 33.3 61.971 33.735 66.742-1.533 3.513-11.971 29.141-.323 50.416 6.884 12.573 20.1 20.954 39.319 24.99l47.47-180.307c-13.06-13.06-16.398-16.398-29.458-29.458l-104.293 27.458c-2.099 3.427-6.719 12.436-4.205 22.023z" fill="#ff4155"/><path d="m172.333 397.731s-4.049-54.446-34.642-68.365-12.006-39.363-12.006-39.363l-119.594 31.486c8.78 38.658 26.704 73.839 51.373 103.156l.004-.003 8.284 9.352-.003.005c1.988 2.132 4.013 4.229 6.075 6.289l8.305 7.913c2.234 2.034 4.506 4.027 6.814 5.978l9.65 7.75c29.984 22.862 65.394 38.971 103.969 46.039l9.62-36.539c-65.359-13.675-37.849-73.698-37.849-73.698z" fill="#e80054"/><path d="m494.116 61.667c-12.207-2.694-29.5-2.562-44.426 12.367-5.153 5.153-10.005 9.896-14.419 14.094-5.393 5.129-8.431 12.052-8.553 19.491-.123 7.441 2.686 14.462 7.907 19.768l7.449 7.569 66.48-45.581c4.092-2.805 4.631-8.638 1.123-12.146z" fill="#ff4155"/><path d="m443.158 10.709c-3.508-3.508-9.341-2.969-12.146 1.123l-51.788 75.534c-1.986 2.897-2.425 6.596-1.148 9.868 4.238 10.865-.131 15.749-.131 15.749l29.458 29.458s4.885-4.368 15.749-.131c3.273 1.276 6.972.838 9.869-1.148l10.31-7.069-7.636-7.759c-10.208-10.372-9.934-27.091.61-37.12 4.064-3.865 8.85-8.524 14.446-14.12 15.475-15.475 33.44-14.625 45.301-11.493z" fill="#e80054"/><ellipse cx="158.701" cy="361.685" fill="#543e5b" rx="38.543" ry="38.543" transform="matrix(.999 -.05 .05 .999 -17.879 8.384)"/><path d="m181.497 330.606c-12.963-9.508-29.892-9.714-42.826-1.854 1.094.719 2.175 1.469 3.242 2.251 21.814 16 32.551 41.477 30.737 66.605 6.623-2.564 12.618-6.977 17.13-13.128 12.59-17.164 8.882-41.284-8.283-53.874z" fill="#45304c"/><path d="m133.049 428.615-43.939-43.939c-6.189-6.189-16.224-6.189-22.413 0-6.189 6.189-6.189 16.224 0 22.413l43.939 43.939c6.189 6.189 16.224 6.189 22.413 0 6.19-6.189 6.19-16.224 0-22.413z" fill="#cc0053"/><g><path d="m400.678 97.623c-1.995 0-3.99-.761-5.512-2.283l-29.466-29.467c-3.044-3.045-3.044-7.979 0-11.024 3.044-3.043 7.979-3.043 11.023 0l29.467 29.467c3.044 3.045 3.044 7.979 0 11.024-1.522 1.521-3.517 2.283-5.512 2.283z" fill="#d3dcfb"/></g><g><path d="m418.623 71.34c-1.995 0-3.99-.761-5.512-2.283l-29.467-29.467c-3.044-3.045-3.044-7.979 0-11.024 3.044-3.043 7.979-3.043 11.023 0l29.467 29.467c3.044 3.045 3.044 7.979 0 11.024-1.521 1.521-3.516 2.283-5.511 2.283z" fill="#d3dcfb"/></g><g><path d="m436.568 45.056c-1.995 0-3.99-.761-5.512-2.283l-29.467-29.467c-3.044-3.045-3.044-7.979 0-11.024 3.044-3.043 7.979-3.043 11.023 0l29.467 29.467c3.044 3.045 3.044 7.979 0 11.024-1.522 1.522-3.517 2.283-5.511 2.283z" fill="#d3dcfb"/></g><g><path d="m255.882 300.199c-1.596 0-3.192-.609-4.409-1.827l-29.458-29.458c-2.435-2.435-2.435-6.383 0-8.818 2.435-2.436 6.384-2.436 8.819 0l29.458 29.458c2.435 2.435 2.435 6.383 0 8.818-1.218 1.218-2.814 1.827-4.41 1.827z" fill="#bec8f7"/></g><g><path d="m407.403 148.677c-1.596 0-3.191-.609-4.409-1.827l-29.458-29.458c-2.435-2.435-2.435-6.383 0-8.818 2.435-2.436 6.383-2.436 8.819 0l29.458 29.458c2.435 2.435 2.435 6.383 0 8.818-1.218 1.218-2.814 1.827-4.41 1.827z" fill="#bec8f7"/></g><g><path d="m382.149 173.931c-1.596 0-3.191-.609-4.409-1.827l-29.458-29.458c-2.435-2.435-2.435-6.383 0-8.818 2.435-2.436 6.383-2.436 8.819 0l29.458 29.458c2.435 2.435 2.435 6.383 0 8.818-1.218 1.218-2.814 1.827-4.41 1.827z" fill="#bec8f7"/></g><g><path d="m356.896 199.185c-1.596 0-3.191-.609-4.409-1.827l-29.458-29.458c-2.435-2.435-2.435-6.383 0-8.818 2.435-2.436 6.383-2.436 8.819 0l29.458 29.458c2.435 2.435 2.435 6.383 0 8.818-1.218 1.218-2.814 1.827-4.41 1.827z" fill="#bec8f7"/></g><g><path d="m331.642 224.438c-1.596 0-3.191-.609-4.409-1.827l-29.458-29.459c-2.435-2.435-2.435-6.383 0-8.818 2.435-2.436 6.383-2.436 8.819 0l29.458 29.459c2.435 2.435 2.435 6.383 0 8.818-1.218 1.218-2.814 1.827-4.41 1.827z" fill="#bec8f7"/></g><g><path d="m306.389 249.691c-1.596 0-3.191-.609-4.409-1.827l-29.458-29.458c-2.435-2.435-2.435-6.383 0-8.818 2.435-2.436 6.383-2.436 8.819 0l29.458 29.458c2.435 2.435 2.435 6.383 0 8.818-1.218 1.218-2.814 1.827-4.41 1.827z" fill="#bec8f7"/></g><g><path d="m281.135 274.945c-1.596 0-3.191-.609-4.409-1.827l-29.458-29.458c-2.435-2.435-2.435-6.383 0-8.818 2.435-2.436 6.383-2.436 8.819 0l29.458 29.458c2.435 2.435 2.435 6.383 0 8.818-1.218 1.218-2.814 1.827-4.41 1.827z" fill="#bec8f7"/></g><g fill="#e9efff"><path d="m388.264 123.304-316.718 316.719c2.937 2.944 5.949 5.813 9.031 8.605l316.506-316.506c2.435-2.435 2.435-6.383 0-8.818-2.435-2.436-6.384-2.436-8.819 0z"/><path d="m402.994 138.032-316.104 316.104c3.192 2.7 6.452 5.319 9.781 7.855l315.141-315.141c2.436-2.435 2.436-6.383 0-8.818-2.434-2.435-6.383-2.435-8.818 0z"/><path d="m373.536 108.575-316.067 316.067c2.683 3.188 5.445 6.306 8.284 9.352l316.602-316.602c2.435-2.435 2.435-6.383 0-8.818s-6.385-2.435-8.819.001z"/></g><g><path d="m389.495 50.434c-1.995 0-3.99-.761-5.512-2.283-3.044-3.045-3.044-7.979 0-11.024l8.223-8.223c3.044-3.043 7.979-3.043 11.023 0 3.044 3.045 3.044 7.979 0 11.024l-8.223 8.223c-1.522 1.522-3.517 2.283-5.511 2.283z" fill="#e9efff"/></g><g><path d="m371.55 76.718c-1.995 0-3.99-.761-5.512-2.283-3.044-3.044-3.044-7.979 0-11.023l8.223-8.223c3.044-3.045 7.979-3.044 11.023-.001 3.044 3.044 3.044 7.979 0 11.023l-8.223 8.223c-1.521 1.523-3.516 2.284-5.511 2.284z" fill="#e9efff"/></g><g><path d="m407.44 24.151c-1.995 0-3.99-.761-5.512-2.283-3.044-3.044-3.044-7.979 0-11.023l8.223-8.223c3.044-3.045 7.979-3.044 11.023-.001 3.044 3.044 3.044 7.979 0 11.023l-8.223 8.223c-1.522 1.523-3.516 2.284-5.511 2.284z" fill="#e9efff"/></g><path d="m1.164 243.091c14.03 15.682 40.794 27.376 91.763 17.836 118.49-22.177 130.322-62.665 192.378-124.721 35.378-35.378 33.874-76.385 26.046-105.111-21.102-5.923-43.354-9.099-66.349-9.099-127.244 0-231.82 97.005-243.838 221.095z" fill="#6e92ed"/><path d="m490.004 266.998c0-26.136-4.108-51.31-11.688-74.928-26.094-2.957-57.439 2.031-85.294 29.885-62.057 62.056-102.545 73.888-124.721 192.378-10.026 53.566 3.402 80.391 20.264 93.803 114.528-20.553 201.439-120.695 201.439-241.138z" fill="#6e92ed"/></g></svg>